# xmcd
#
# Track frame offsets:
#	187
#	28112
#	56603
#	77076
#	94782
#
# Disc length: 1596 seconds
#
# Revision: 0
# Processed by: cddbd v1.5.1PL2 Copyright (c) Steve Scherf et al.
# Submitted via: dBpowerAMP V4.0
#
DISCID=36063a05
DTITLE=Ito - D'kir Blues
DYEAR=2005
DGENRE=Blues
TTITLE0=Lamo Tak Jumpo
TTITLE1=Dialah Allah
TTITLE2=Jangan Pandang Kulit
TTITLE3=Katakan
TTITLE4=Apo Nak DiKato - 2005 Blues
EXTD=
EXTT0=
EXTT1=
EXTT2=
EXTT3=
EXTT4=
PLAYORDER=
